<svg viewBox="0 0 20 12" fill="none" xmlns="http://www.w3.org/2000/svg">
<path d="M6.66667 1.83333C5.5616 1.83333 4.50179 2.27232 3.72039 3.05372C2.93899 3.83512 2.5 4.89493 2.5 6C2.5 7.10507 2.93899 8.16488 3.72039 8.94628C4.50179 9.72768 5.5616 10.1667 6.66667 10.1667H13.3333C14.4384 10.1667 15.4982 9.72768 16.2796 8.94628C17.061 8.16488 17.5 7.10507 17.5 6C17.5 4.89493 17.061 3.83512 16.2796 3.05372C15.4982 2.27232 14.4384 1.83333 13.3333 1.83333H6.66667ZM6.66667 0.166664H13.3333C14.8804 0.166664 16.3642 0.781246 17.4581 1.87521C18.5521 2.96917 19.1667 4.4529 19.1667 6C19.1667 7.54709 18.5521 9.03083 17.4581 10.1248C16.3642 11.2188 14.8804 11.8333 13.3333 11.8333H6.66667C5.11957 11.8333 3.63584 11.2188 2.54188 10.1248C1.44792 9.03083 0.833336 7.54709 0.833336 6C0.833336 4.4529 1.44792 2.96917 2.54188 1.87521C3.63584 0.781246 5.11957 0.166664 6.66667 0.166664ZM6.66667 8.5C6.00363 8.5 5.36774 8.23661 4.8989 7.76777C4.43006 7.29892 4.16667 6.66304 4.16667 6C4.16667 5.33696 4.43006 4.70107 4.8989 4.23223C5.36774 3.76339 6.00363 3.5 6.66667 3.5C7.32971 3.5 7.96559 3.76339 8.43444 4.23223C8.90328 4.70107 9.16667 5.33696 9.16667 6C9.16667 6.66304 8.90328 7.29892 8.43444 7.76777C7.96559 8.23661 7.32971 8.5 6.66667 8.5Z" fill="currentColor"/>
</svg>
