<svg viewBox="0 0 18 18" fill="none" xmlns="http://www.w3.org/2000/svg">
<path d="M9 17.3333C4.3975 17.3333 0.666664 13.6025 0.666664 9.00001C0.666664 4.39751 4.3975 0.666672 9 0.666672C13.6025 0.666672 17.3333 4.39751 17.3333 9.00001C17.3333 13.6025 13.6025 17.3333 9 17.3333ZM9 15.6667C10.7681 15.6667 12.4638 14.9643 13.714 13.7141C14.9643 12.4638 15.6667 10.7681 15.6667 9.00001C15.6667 7.2319 14.9643 5.5362 13.714 4.28596C12.4638 3.03572 10.7681 2.33334 9 2.33334C7.23189 2.33334 5.5362 3.03572 4.28595 4.28596C3.03571 5.5362 2.33333 7.2319 2.33333 9.00001C2.33333 10.7681 3.03571 12.4638 4.28595 13.7141C5.5362 14.9643 7.23189 15.6667 9 15.6667ZM8.16916 12.3333L4.63333 8.79751L5.81166 7.61917L8.16916 9.97667L12.8825 5.26251L14.0617 6.44084L8.16916 12.3333Z" fill="currentColor"/>
</svg>
