<svg viewBox="0 0 14 14" fill="none" xmlns="http://www.w3.org/2000/svg">
<path d="M7 0.333352C10.682 0.333353 13.6667 3.31802 13.6667 7.00002C13.6667 10.682 10.682 13.6667 7 13.6667C3.318 13.6667 0.333334 10.682 0.333335 7.00002C0.333335 3.31802 3.318 0.333352 7 0.333352ZM7 1.66669C5.58551 1.66669 4.22896 2.22859 3.22877 3.22878C2.22857 4.22898 1.66667 5.58553 1.66667 7.00002C1.66667 8.41451 2.22857 9.77106 3.22876 10.7713C4.22896 11.7714 5.58551 12.3334 7 12.3334C8.41449 12.3334 9.77104 11.7715 10.7712 10.7713C11.7714 9.77106 12.3333 8.41451 12.3333 7.00002C12.3333 5.58553 11.7714 4.22898 10.7712 3.22878C9.77104 2.22859 8.41449 1.66669 7 1.66669ZM7.66667 5.00002L6.33334 5.00002L6.33334 3.66669L7.66667 3.66669L7.66667 5.00002ZM7.66667 10.3334L6.33333 10.3334L6.33334 6.33335L7.66667 6.33335L7.66667 10.3334Z" fill="currentColor" fill-opacity="0.5"/>
</svg>
