<svg viewBox="0 0 12 16" fill="none" xmlns="http://www.w3.org/2000/svg">
<path d="M6 0.666473L11.478 1.88381C11.7827 1.95181 12 2.22181 12 2.53447V9.19247C12 10.5298 11.3313 11.7791 10.2187 12.5205L6 15.3331L1.78133 12.5205C0.668 11.7785 0 10.5298 0 9.19314V2.53447C0 2.22181 0.217333 1.95181 0.522 1.88381L6 0.666473ZM6 2.03247L1.33333 3.06914V9.19247C1.33333 10.0838 1.77867 10.9165 2.52067 11.4111L6 13.7311L9.47933 11.4111C10.2213 10.9165 10.6667 10.0845 10.6667 9.19314V3.06914L6 2.03314V2.03247ZM8.968 5.48114L9.91133 6.42381L5.66867 10.6665L2.84 7.83781L3.78267 6.89514L5.668 8.78047L8.968 5.48047V5.48114Z" fill="currentColor"/>
</svg>
